<svg xmlns="http://www.w3.org/2000/svg" x="0px" y="0px" viewBox="0 0 864 864" enable-background="new 0 0 864 864"><style>.ls0{fill:#232323}.fs0{fill:#ebebeb}</style><g transform="translate(145.2860759494 331.5860759494) scale(.55443)" class="ls0"><path d="M393.8,172.4V192v11.7v47.5c-4.9,2.3-9.8,4.6-14.8,6.8v-26.8v-31.7l-29.2,12.3c-0.8,0.3-1.5,0.7-2.3,1	c-0.7,0.3-1.4,0.6-2.2,0.9c-57.5,24.3-117.9,41.1-179.4,49.8l-21.6,3.1l3.9,21.5c3.3,18.4,7.6,36.8,12.7,54.8	c6.3,22.3,14.2,44.5,23.2,66c28.9,68.2,70.2,129.5,122.8,182.1c12,12,24.6,23.6,37.6,34.4l34.5,28.9v-45v-67.9l14.8,9.1v100.5v12.8	V682c-5.4-3.4-10.6-7-15.8-10.5l0,0l0,0c-2.6-1.8-5.1-3.6-7.7-5.4l0,0l0,0c-26.4-18.8-51.6-40.2-74.9-63.5	c-54.2-54.2-96.7-117.2-126.3-187.4c-10.6-25.1-19.5-51-26.5-77.1c-4.5-16.8-8.3-34.2-11.3-51.5c-2-11.6-3.7-23.4-5-35.2	c12.8-1.1,25.7-2.6,38.3-4.4c52.2-7.5,103.6-20.9,153-39.8c7.3-2.8,14.5-5.7,21.4-8.7c9.4-4,18.9-8.2,28.1-12.6	c2.9-1.4,6-2.9,9.8-4.7C382.5,178.2,388.2,175.3,393.8,172.4 M414.8,136.5c-15.4,9.2-31.2,17.8-47.3,25.8c-3.1,1.6-6.3,3.1-9.5,4.6	c-9,4.3-18.1,8.4-27.3,12.2c-6.9,2.9-13.8,5.7-20.8,8.4c-48,18.5-97.6,31.4-148.4,38.7c-19.2,2.8-38.7,4.7-58.2,5.8	c1.4,19.6,3.8,39,7.1,58.2c3.1,18,7,35.8,11.7,53.3c7.2,27.1,16.4,53.8,27.4,79.8c30.7,72.7,74.8,138,130.8,194	c24.2,24.2,50.1,46.1,77.6,65.7c2.7,1.9,5.3,3.8,8,5.6c15.8,10.9,32,21,48.8,30.3v-55.4v-12.8V538.6l-56.8-35v105.5	c-12.5-10.5-24.6-21.5-36.2-33.2c-50.7-50.7-90.5-109.8-118.3-175.4c-8.8-20.8-16.3-42-22.4-63.5c-5-17.4-9-35-12.2-52.8	c63.4-9,125.2-26.1,184.7-51.2c1.5-0.6,3-1.3,4.5-1.9v58.4c5.5-2.2,11.1-4.4,16.6-6.8c13.5-5.7,27-11.9,40.2-18.3v-10.7v-50V192	V136.5L414.8,136.5z"/><path d="M456.8,172.4c5.6,3,11.3,5.9,17,8.7l0,0l0,0c3.7,1.8,6.8,3.3,9.7,4.7c9.2,4.4,18.7,8.6,28.1,12.6c7.3,3.1,14.5,6,21.4,8.7	c49.3,19,100.8,32.4,152.9,39.8c12.7,1.8,25.5,3.3,38.3,4.4c-1.3,11.8-3,23.6-5,35.2c-2,11.5-4.3,23-7,34.5	c-5.5-0.5-11-1.1-16.5-1.8c2.5-10.4,4.7-20.9,6.6-31.4l3.9-21.5l-21.6-3.1c-61.5-8.7-121.9-25.4-179.5-49.8	c-0.7-0.3-1.5-0.6-2.2-0.9c-0.8-0.3-1.5-0.7-2.3-1l-29.2-12.3v31.7v58.4v84.8v20.4l20.4,0.5c19.1,0.5,38.3,1.2,57.2,2.2l-5.4,14.5	c-16.9-0.8-33.8-1.4-50.7-1.9l-21.6-0.6v21.6v178v63c-4.9,3.3-9.8,6.6-14.8,9.8v-18.3v-12.8V379.7V264.3v-10.7v-50V192V172.4 M435.8,136.5V192v11.7v50v10.7v115.4v271.2v12.8V719c16.7-9.3,33-19.4,48.8-30.3c2.7-1.8,5.4-3.7,8-5.6v-73.9v-178	c21.9,0.6,43.7,1.5,65.5,2.7l20.8-55.7c-28.8-1.8-57.6-3-86.4-3.8v-84.8v-58.4c1.5,0.6,3,1.3,4.5,1.9	c59.4,25.1,121.2,42.3,184.7,51.2c-3.2,17.8-7.3,35.4-12.2,52.8c19.5,2.9,39.1,5,58.9,6.5c4.7-17.6,8.6-35.4,11.7-53.3	c3.3-19.2,5.7-38.6,7.1-58.2c-19.6-1.1-39-3-58.2-5.8c-50.8-7.2-100.3-20.2-148.4-38.7c-7-2.7-13.9-5.5-20.8-8.4	c-9.2-3.9-18.3-8-27.3-12.2c-3.2-1.5-6.3-3-9.5-4.6C467,154.3,451.2,145.7,435.8,136.5L435.8,136.5z"/></g><g><g><path class="fs0" d="M584.5,292.3c-24-54.9-105.3-94-199.7-94c-94.4,0-175.7,39.1-199.7,94c-3,7-4.6,14.4-4.8,22l-1.7,81.6 c38.2-46.9,117-78.2,206.2-78.2c89.2,0,168,31.4,206.2,78.2l-1.7-81.6C589.2,306.7,587.5,299.2,584.5,292.3z"/><path class="fs0" d="M802.7,478.7c-0.1-0.4-0.2-0.7-0.3-1.1c-4.3-14.2-8.9-28-16.7-40.7c-4.4-7.1-11.5-15.1-19.3-19.9 c0.6-2.9,0.6-6-0.2-8.9c-0.2-0.6-0.4-1.2-0.6-1.8c-0.4-1.1-0.9-2.2-1.6-3.3c-1.1-2.1-2.6-3.7-4.5-5c-0.2-0.2-0.4-0.4-0.7-0.5 c-1.3-1.1-2.7-2-4.3-2.5c-3.6-19.6-12.9-38.2-22.3-56.1c-7.1-13.6-14.3-27.1-19-41.7c-2.4-7.6-4.3-15.5-4.9-23.5 c-0.6-7.8,0.8-15.4,0.4-23.1c0,0,0-0.1,0-0.1c0,0,0-0.1,0-0.1c0-3.6-2.1-6.8-5.3-8.3L394.9,99.2c-6.4-3-13.8-3-20.2,0L66.4,242 c-3.2,1.5-5.3,4.8-5.3,8.3c0,3.6,2.1,6.8,5.3,8.3l100.6,46.6c0.7-7,2.4-13.8,5.3-20.3c26.1-59.7,113.4-101.4,212.5-101.4 c99.1,0,186.4,41.7,212.5,101.4c2.8,6.4,4.6,13.3,5.3,20.3l85.8-39.8c-0.4,8.6,1,17.5,2.8,25.2c3.5,15,9.9,29.4,16.8,43.1 c10.5,20.8,22.5,41,28.5,63.2c-0.9,0.6-1.7,1.2-2.5,2c-0.3,0.2-0.5,0.4-0.8,0.6c-0.1,0-0.1,0.1-0.2,0.2c-1.2,1.1-2.3,2.5-3.1,4 c-0.4,0.8-0.7,1.6-1,2.4c-0.4,0.8-0.7,1.6-1,2.4c-0.1,0.9-0.3,1.8-0.4,2.6c-0.2,0.9-0.3,1.8-0.3,2.6c-0.1,1.7,0.2,3.5,0.7,5.2 c0.4,1.6,1.1,3.3,2,4.7c0.5,0.7,1,1.3,1.6,2c0.4,0.8,0.9,1.4,1.6,2c0.9,0.7,1.9,1.5,2.8,2.2c-1.9,5.5-3.1,11.3-3.7,17.1 c-0.9,7.9-0.8,15.9-0.2,23.9c0.6,7.9,2,15.6,3.3,23.4c1-0.1,2-0.3,3-0.7c-0.4-3.2-0.7-6.4-0.9-9.6c0-0.7-0.1-1.3,0.1-2 c1.3,3.6,2.5,7.3,4,10.8c0.1,0.2,0.2,0.5,0.4,0.6c0.1,0.1,0.3,0.1,0.5,0.1c2,0.1,4.1,0,6.1-0.5c1-0.2,2-0.5,3-0.9 c0.5-0.2,0.9-0.4,1.4-0.6c0.3-0.1,0.8-0.2,1-0.5c0.1-0.2,0.2-0.4,0.2-0.6c0.5-2.3,0.5-4.6,0.5-7c0-3.1-0.3-6.2-0.7-9.3 c1.3,6.1,3,12.1,5,18c1.1-0.2,2.3-0.3,3.4-0.5c0.3,0,0.6-0.1,0.8-0.3c0.2-0.2,0.2-0.6,0.3-0.9c0.1-2.5-0.1-5.1-0.4-7.6 c1.2,2.5,2.2,5.1,3.3,7.6c0,0.1,0.1,0.2,0.2,0.3c0.1,0.1,0.2,0,0.3,0c1.2-0.1,2.3-0.4,3.5-0.8c0.6-3.8,0.5-7.7-0.1-11.5 c0.1,0.8,0.6,1.7,0.9,2.5c0.3,0.9,0.6,1.8,0.8,2.7c0.5,1.8,0.8,3.6,1.2,5.4c0,0.1,0,0.1,0.1,0.1s0.1,0,0.2,0c1.2-0.1,2.5,0,3.6-0.5 c0-0.8,0-1.6-0.1-2.4c0-0.6,0.2-1.5,0-2.1c0.4,1.2,0.6,2.3,1,3.5c0,0.1,0.1,0.1,0.1,0.2c0.1,0.1,0.2,0.1,0.3,0.1 c1.1-0.1,2.2-0.3,3.3-0.6c0.1,0,0.2-0.1,0.3-0.1c0-0.1,0.1-0.1,0.1-0.2c0.3-3.1,0.2-6.1-0.1-9.3c-0.2-1.6-0.4-3.1-0.7-4.7 c-0.1-0.8-0.3-1.6-0.5-2.4c-0.1-0.7-0.5-1.5-0.5-2.2c2.5,5.9,5,11.9,7.2,18c5.3-0.8,11-1.8,14.8-5.6c0.3-0.3,0.6-0.6,0.6-1 C803,479.5,802.8,479.1,802.7,478.7z"/></g><path class="fs0" d="M384.8,329.6c-152.9,0-277.4,108.3-277.4,241.5c0,133.2,124.4,241.5,277.4,241.5s277.4-108.3,277.4-241.5	C662.2,437.9,537.8,329.6,384.8,329.6z M384.8,782.3c-116.7,0-211.2-94.6-211.2-211.2c0-116.7,94.6-211.2,211.2-211.2	c116.7,0,211.2,94.6,211.2,211.2C596.1,687.8,501.5,782.3,384.8,782.3z"/></g></svg>