<svg xmlns="http://www.w3.org/2000/svg" x="0px" y="0px" viewBox="0 0 864 864" enable-background="new 0 0 864 864"><style>.fs0,.ls0{fill:#fff}</style><g transform="translate(89.916344464 276.216344464) scale(.6826)" class="ls0"><path d="M393.6,173.3v114.2h-18v-71.2v-25h-25h-7.9h-10.4l-7.3,7.3L198.7,325l-7.3,7.3v10.4v178.7v10.4l7.3,7.3L325,665.3l7.3,7.3	h10.4h7.9h25v-25v-71.2h18v114.2h-68.7L173.3,539.2V324.8l151.5-151.5H393.6 M418.6,148.3c-25.8,0-86.1,0-104.1,0L148.3,314.5	c0,1.7,0,232.9,0,235l166.2,166.2c10.9,0,87.3,0,104.1,0c0-7.2,0-157.3,0-164.2h-68v96.2h-7.9L216.3,521.3c0-6.1,0-164.2,0-178.7	l126.3-126.3h7.9v96.2h68C418.6,305.6,418.6,155.5,418.6,148.3L418.6,148.3z"/><path d="M539.2,173.3l132.4,132.4l-18,7.5L539,198.7l-7.3-7.3h-10.4h-7.9h-25v25V398v25h25h43v18h-43h-25v25v224.7h-18V216.3v-43	H539.2 M549.5,148.3c-10.9,0-87.3,0-104.1,0v68c0,23.9,0,475.9,0,499.4h68c0-7.9,0-233,0-249.7h68v-68h-68c0-4.2,0-177,0-181.6h7.9	c5.5,5.5,120.8,120.8,126.3,126.3l68-28.2C708.4,307.2,556.8,155.6,549.5,148.3L549.5,148.3z"/></g><g><g><path class="fs0" d="M584.5,292.3c-24-54.9-105.3-94-199.7-94c-94.4,0-175.7,39.1-199.7,94c-3,7-4.6,14.4-4.8,22l-1.7,81.6 c38.2-46.9,117-78.2,206.2-78.2c89.2,0,168,31.4,206.2,78.2l-1.7-81.6C589.2,306.7,587.5,299.2,584.5,292.3z"/><path class="fs0" d="M802.7,478.7c-0.1-0.4-0.2-0.7-0.3-1.1c-4.3-14.2-8.9-28-16.7-40.7c-4.4-7.1-11.5-15.1-19.3-19.9 c0.6-2.9,0.6-6-0.2-8.9c-0.2-0.6-0.4-1.2-0.6-1.8c-0.4-1.1-0.9-2.2-1.6-3.3c-1.1-2.1-2.6-3.7-4.5-5c-0.2-0.2-0.4-0.4-0.7-0.5 c-1.3-1.1-2.7-2-4.3-2.5c-3.6-19.6-12.9-38.2-22.3-56.1c-7.1-13.6-14.3-27.1-19-41.7c-2.4-7.6-4.3-15.5-4.9-23.5 c-0.6-7.8,0.8-15.4,0.4-23.1c0,0,0-0.1,0-0.1c0,0,0-0.1,0-0.1c0-3.6-2.1-6.8-5.3-8.3L394.9,99.2c-6.4-3-13.8-3-20.2,0L66.4,242 c-3.2,1.5-5.3,4.8-5.3,8.3c0,3.6,2.1,6.8,5.3,8.3l100.6,46.6c0.7-7,2.4-13.8,5.3-20.3c26.1-59.7,113.4-101.4,212.5-101.4 c99.1,0,186.4,41.7,212.5,101.4c2.8,6.4,4.6,13.3,5.3,20.3l85.8-39.8c-0.4,8.6,1,17.5,2.8,25.2c3.5,15,9.9,29.4,16.8,43.1 c10.5,20.8,22.5,41,28.5,63.2c-0.9,0.6-1.7,1.2-2.5,2c-0.3,0.2-0.5,0.4-0.8,0.6c-0.1,0-0.1,0.1-0.2,0.2c-1.2,1.1-2.3,2.5-3.1,4 c-0.4,0.8-0.7,1.6-1,2.4c-0.4,0.8-0.7,1.6-1,2.4c-0.1,0.9-0.3,1.8-0.4,2.6c-0.2,0.9-0.3,1.8-0.3,2.6c-0.1,1.7,0.2,3.5,0.7,5.2 c0.4,1.6,1.1,3.3,2,4.7c0.5,0.7,1,1.3,1.6,2c0.4,0.8,0.9,1.4,1.6,2c0.9,0.7,1.9,1.5,2.8,2.2c-1.9,5.5-3.1,11.3-3.7,17.1 c-0.9,7.9-0.8,15.9-0.2,23.9c0.6,7.9,2,15.6,3.3,23.4c1-0.1,2-0.3,3-0.7c-0.4-3.2-0.7-6.4-0.9-9.6c0-0.7-0.1-1.3,0.1-2 c1.3,3.6,2.5,7.3,4,10.8c0.1,0.2,0.2,0.5,0.4,0.6c0.1,0.1,0.3,0.1,0.5,0.1c2,0.1,4.1,0,6.1-0.5c1-0.2,2-0.5,3-0.9 c0.5-0.2,0.9-0.4,1.4-0.6c0.3-0.1,0.8-0.2,1-0.5c0.1-0.2,0.2-0.4,0.2-0.6c0.5-2.3,0.5-4.6,0.5-7c0-3.1-0.3-6.2-0.7-9.3 c1.3,6.1,3,12.1,5,18c1.1-0.2,2.3-0.3,3.4-0.5c0.3,0,0.6-0.1,0.8-0.3c0.2-0.2,0.2-0.6,0.3-0.9c0.1-2.5-0.1-5.1-0.4-7.6 c1.2,2.5,2.2,5.1,3.3,7.6c0,0.1,0.1,0.2,0.2,0.3c0.1,0.1,0.2,0,0.3,0c1.2-0.1,2.3-0.4,3.5-0.8c0.6-3.8,0.5-7.7-0.1-11.5 c0.1,0.8,0.6,1.7,0.9,2.5c0.3,0.9,0.6,1.8,0.8,2.7c0.5,1.8,0.8,3.6,1.2,5.4c0,0.1,0,0.1,0.1,0.1s0.1,0,0.2,0c1.2-0.1,2.5,0,3.6-0.5 c0-0.8,0-1.6-0.1-2.4c0-0.6,0.2-1.5,0-2.1c0.4,1.2,0.6,2.3,1,3.5c0,0.1,0.1,0.1,0.1,0.2c0.1,0.1,0.2,0.1,0.3,0.1 c1.1-0.1,2.2-0.3,3.3-0.6c0.1,0,0.2-0.1,0.3-0.1c0-0.1,0.1-0.1,0.1-0.2c0.3-3.1,0.2-6.1-0.1-9.3c-0.2-1.6-0.4-3.1-0.7-4.7 c-0.1-0.8-0.3-1.6-0.5-2.4c-0.1-0.7-0.5-1.5-0.5-2.2c2.5,5.9,5,11.9,7.2,18c5.3-0.8,11-1.8,14.8-5.6c0.3-0.3,0.6-0.6,0.6-1 C803,479.5,802.8,479.1,802.7,478.7z"/></g><path class="fs0" d="M384.8,329.6c-152.9,0-277.4,108.3-277.4,241.5c0,133.2,124.4,241.5,277.4,241.5s277.4-108.3,277.4-241.5	C662.2,437.9,537.8,329.6,384.8,329.6z M384.8,782.3c-116.7,0-211.2-94.6-211.2-211.2c0-116.7,94.6-211.2,211.2-211.2	c116.7,0,211.2,94.6,211.2,211.2C596.1,687.8,501.5,782.3,384.8,782.3z"/></g></svg>