<svg xmlns="http://www.w3.org/2000/svg" x="0px" y="0px" viewBox="0 0 864 864" enable-background="new 0 0 864 864"><style>.ls0{fill:#000}.fs0{fill:#1a0a53}</style><g transform="matrix(.58067 0 0 .58067 181.1524564184 181.2524564184)" class="ls0"><g><path d="M358,166.8c-9,4.3-18.1,8.4-27.3,12.2c-6.9,2.9-13.8,5.7-20.8,8.4c-48,18.5-97.6,31.4-148.4,38.7 c-19.2,2.8-38.7,4.7-58.2,5.8c1.4,19.6,3.8,39,7.1,58.2c3.1,18,7,35.8,11.7,53.3c7.2,27.1,16.4,53.8,27.4,79.8 c30.7,72.7,74.8,138,130.8,194c24.2,24.2,50.1,46.1,77.6,65.7c2.7,1.9,5.3,3.8,8,5.6c15.8,10.9,32,21,48.8,30.3v-55.4v-12.8V538.6 l-56.8-35v105.5c-12.5-10.5-24.6-21.5-36.2-33.2c-50.7-50.7-90.5-109.8-118.3-175.4c-8.8-20.8-16.3-42-22.4-63.5 c-5-17.4-9-35-12.2-52.8c63.4-9,125.2-26.1,184.7-51.2c1.5-0.6,3-1.3,4.5-1.9v58.4c5.5-2.2,11.1-4.4,16.6-6.8 c13.5-5.7,27-11.9,40.2-18.3v-10.7v-50V192v-55.5c-15.4,9.2-31.2,17.8-47.3,25.8C364.4,163.8,361.2,165.3,358,166.8z"/></g><g><path d="M540.7,187.5c-7-2.7-13.9-5.5-20.8-8.4c-9.2-3.9-18.3-8-27.3-12.2c-3.2-1.5-6.3-3-9.5-4.6c-16.1-8-31.9-16.6-47.3-25.8V192 v11.7v50v10.7v115.4v271.2v12.8V719c16.7-9.3,33-19.4,48.8-30.3c2.7-1.8,5.4-3.7,8-5.6v-73.9v-178c21.9,0.6,43.7,1.5,65.5,2.7 l20.8-55.7c-28.8-1.8-57.6-3-86.3-3.8v-84.8v-58.4c1.5,0.6,3,1.3,4.5,1.9c59.4,25.1,121.2,42.3,184.7,51.2 c-3.2,17.8-7.3,35.4-12.2,52.8c19.5,2.9,39.1,5,58.9,6.5c4.7-17.6,8.6-35.4,11.7-53.3c3.3-19.2,5.7-38.6,7.1-58.2 c-19.6-1.1-39-3-58.2-5.8C638.3,218.9,588.7,206,540.7,187.5z"/></g></g><g class="fs0"><path d="M635.5,773.3h-407c-76,0-137.8-61.8-137.8-137.8v-407c0-76,61.8-137.8,137.8-137.8h407c76,0,137.8,61.8,137.8,137.8v407	C773.3,711.5,711.5,773.3,635.5,773.3z M228.5,139c-49.3,0-89.5,40.1-89.5,89.5v407c0,49.3,40.1,89.5,89.5,89.5h407	c49.3,0,89.5-40.1,89.5-89.5v-407c0-49.3-40.1-89.5-89.5-89.5H228.5z"/><path d="M585.4,700.8c0-10.4,8.4-18.8,18.8-18.8l0,0c10.4,0,18.8,8.4,18.8,18.8l0,0c0,10.4-8.4,18.8-18.8,18.8l0,0	C593.9,719.6,585.4,711.2,585.4,700.8z M531.8,700.8c0-10.4,8.4-18.8,18.8-18.8l0,0c10.4,0,18.8,8.4,18.8,18.8l0,0	c0,10.4-8.4,18.8-18.8,18.8l0,0C540.2,719.6,531.8,711.2,531.8,700.8z M478.2,700.8c0-10.4,8.4-18.8,18.8-18.8l0,0	c10.4,0,18.7,8.4,18.7,18.8l0,0c0,10.4-8.4,18.8-18.7,18.8l0,0C486.6,719.6,478.2,711.2,478.2,700.8z M424.5,700.8	c0-10.4,8.4-18.8,18.8-18.8l0,0c10.4,0,18.8,8.4,18.8,18.8l0,0c0,10.4-8.4,18.8-18.8,18.8l0,0C433,719.6,424.5,711.2,424.5,700.8z M370.9,700.8c0-10.4,8.4-18.8,18.8-18.8l0,0c10.4,0,18.8,8.4,18.8,18.8l0,0c0,10.4-8.4,18.8-18.8,18.8l0,0	C379.3,719.6,370.9,711.2,370.9,700.8z M317.3,700.8c0-10.4,8.4-18.8,18.8-18.8l0,0c10.4,0,18.8,8.4,18.8,18.8l0,0	c0,10.4-8.4,18.8-18.8,18.8l0,0C325.7,719.6,317.3,711.2,317.3,700.8z M263.6,700.8c0-10.4,8.4-18.8,18.8-18.8l0,0	c10.4,0,18.8,8.4,18.8,18.8l0,0c0,10.4-8.4,18.8-18.8,18.8l0,0C272.1,719.6,263.6,711.2,263.6,700.8z M228.7,719.6	c-0.1,0-0.1,0-0.2,0l0,0c-10.4,0-18.8-8.4-18.8-18.8l0,0c0-10.4,8.4-18.8,18.8-18.8l0,0c0.1,0,0.1,0,0.2,0l0,0c0.1,0,0.1,0,0.2,0	l0,0c10.4,0,18.7,8.4,18.7,18.8l0,0c0,10.4-8.4,18.8-18.7,18.8l0,0C228.8,719.6,228.7,719.6,228.7,719.6z M639.7,703.3	c-3.5-9.8,1.6-20.5,11.4-24l0,0c9.7-3.5,20.5,1.6,24,11.3l0,0c3.5,9.8-1.6,20.6-11.3,24l0,0c-2.1,0.8-4.2,1.1-6.3,1.1l0,0	C649.7,715.8,642.5,711,639.7,703.3z M167,692.8c-7.1-7.6-6.7-19.5,0.9-26.6l0,0c7.6-7.1,19.5-6.7,26.6,0.9l0,0	c7.1,7.6,6.7,19.5-0.9,26.6l0,0c-3.7,3.4-8.3,5-12.8,5l0,0C175.7,698.8,170.7,696.8,167,692.8z M688,678.6	c-9.5-4.1-13.9-15.2-9.8-24.7l0,0c4.1-9.6,15.2-14,24.7-9.8l0,0c9.5,4.1,13.9,15.2,9.8,24.7l0,0c-3.1,7.1-10,11.3-17.2,11.3l0,0	C693,680.2,690.4,679.6,688,678.6z M144.4,630.9c0-10.4,8.4-18.8,18.8-18.8l0,0c10.4,0,18.8,8.4,18.8,18.8l0,0	c0,10.4-8.4,18.7-18.8,18.7l0,0C152.8,649.6,144.4,641.2,144.4,630.9z M682,608.5c0-10.4,8.4-18.8,18.8-18.8l0,0	c10.4,0,18.8,8.4,18.8,18.8l0,0c0,10.4-8.4,18.8-18.8,18.8l0,0C690.4,627.2,682,618.8,682,608.5z M144.4,577.2	c0-10.4,8.4-18.8,18.8-18.8l0,0c10.4,0,18.8,8.4,18.8,18.8l0,0c0,10.4-8.4,18.8-18.8,18.8l0,0C152.8,596,144.4,587.6,144.4,577.2z M682,554.8c0-10.4,8.4-18.8,18.8-18.8l0,0c10.4,0,18.8,8.4,18.8,18.8l0,0c0,10.4-8.4,18.8-18.8,18.8l0,0	C690.4,573.6,682,565.2,682,554.8z M144.4,523.6c0-10.4,8.4-18.8,18.8-18.8l0,0c10.4,0,18.8,8.4,18.8,18.8l0,0	c0,10.4-8.4,18.8-18.8,18.8l0,0C152.8,542.4,144.4,534,144.4,523.6z M682,501.2c0-10.4,8.4-18.8,18.8-18.8l0,0	c10.4,0,18.8,8.4,18.8,18.8l0,0c0,10.4-8.4,18.8-18.8,18.8l0,0C690.4,520,682,511.5,682,501.2z M144.4,469.9	c0-10.4,8.4-18.8,18.8-18.8l0,0c10.4,0,18.8,8.4,18.8,18.8l0,0c0,10.4-8.4,18.8-18.8,18.8l0,0C152.8,488.7,144.4,480.3,144.4,469.9z M682,447.6c0-10.4,8.4-18.8,18.8-18.8l0,0c10.4,0,18.8,8.4,18.8,18.8l0,0c0,10.4-8.4,18.8-18.8,18.8l0,0	C690.4,466.3,682,457.9,682,447.6z M144.4,416.3c0-10.4,8.4-18.8,18.8-18.8l0,0c10.4,0,18.8,8.4,18.8,18.8l0,0	c0,10.4-8.4,18.8-18.8,18.8l0,0C152.8,435.1,144.4,426.7,144.4,416.3z M682,393.9c0-10.4,8.4-18.8,18.8-18.8l0,0	c10.4,0,18.8,8.4,18.8,18.8l0,0c0,10.4-8.4,18.8-18.8,18.8l0,0C690.4,412.7,682,404.3,682,393.9z M144.4,362.7	c0-10.4,8.4-18.7,18.8-18.7l0,0c10.4,0,18.8,8.4,18.8,18.7l0,0c0,10.4-8.4,18.8-18.8,18.8l0,0C152.8,381.4,144.4,373.1,144.4,362.7z M682,340.3c0-10.4,8.4-18.8,18.8-18.8l0,0c10.4,0,18.8,8.4,18.8,18.8l0,0c0,10.4-8.4,18.8-18.8,18.8l0,0	C690.4,359.1,682,350.6,682,340.3z M144.4,309c0-10.4,8.4-18.8,18.8-18.8l0,0c10.4,0,18.8,8.4,18.8,18.8l0,0	c0,10.4-8.4,18.8-18.8,18.8l0,0C152.8,327.8,144.4,319.4,144.4,309z M682,286.7c0-10.4,8.4-18.8,18.8-18.8l0,0	c10.4,0,18.8,8.4,18.8,18.8l0,0c0,10.4-8.4,18.7-18.8,18.7l0,0C690.4,305.4,682,297,682,286.7z M144.4,255.4	c0-10.4,8.4-18.7,18.8-18.7l0,0c10.4,0,18.8,8.4,18.8,18.7l0,0c0,10.4-8.4,18.8-18.8,18.8l0,0C152.8,274.2,144.4,265.8,144.4,255.4z M682,233c0-10.4,8.4-18.8,18.8-18.8l0,0c10.4,0,18.8,8.4,18.8,18.8l0,0c0,10.4-8.4,18.8-18.8,18.8l0,0	C690.4,251.8,682,243.4,682,233z M161,219.7c-9.5-4.1-13.8-15.2-9.7-24.7l0,0c0,0,0,0,0,0.1l0,0c4.2-9.6,15.2-13.9,24.7-9.8l0,0	c9.5,4.1,13.8,15.2,9.7,24.7l0,0c-3.1,7.1-10,11.3-17.2,11.3l0,0C166,221.3,163.5,220.8,161,219.7z M669.4,196.7	c-7.1-7.6-6.7-19.4,0.9-26.5l0,0c7.6-7.1,19.5-6.7,26.6,0.9l0,0c7.1,7.6,6.7,19.4-0.9,26.6l0,0c-3.7,3.4-8.3,5-12.8,5l0,0	C678.1,202.7,673.1,200.7,669.4,196.7z M188.9,173.2c-3.4-9.8,1.7-20.5,11.4-24l0,0c9.8-3.5,20.5,1.7,24,11.4l0,0	c3.5,9.8-1.6,20.5-11.4,24l0,0c-2.1,0.8-4.2,1.1-6.3,1.1l0,0C198.9,185.7,191.7,180.9,188.9,173.2z M616.6,163.2	c0-10.4,8.4-18.8,18.7-18.8l0,0c10.4,0,18.8,8.4,18.8,18.8l0,0c0,10.4-8.4,18.8-18.8,18.8l0,0C624.9,182,616.6,173.5,616.6,163.2z M562.9,163.2c0-10.4,8.4-18.8,18.8-18.8l0,0c10.4,0,18.8,8.4,18.8,18.8l0,0c0,10.4-8.4,18.8-18.8,18.8l0,0	C571.3,182,562.9,173.5,562.9,163.2z M509.3,163.2c0-10.4,8.4-18.8,18.8-18.8l0,0c10.4,0,18.8,8.4,18.8,18.8l0,0	c0,10.4-8.4,18.8-18.8,18.8l0,0C517.7,182,509.3,173.5,509.3,163.2z M455.6,163.2c0-10.4,8.4-18.8,18.8-18.8l0,0	c10.4,0,18.8,8.4,18.8,18.8l0,0c0,10.4-8.4,18.8-18.8,18.8l0,0C464,182,455.6,173.5,455.6,163.2z M402,163.2	c0-10.4,8.4-18.8,18.8-18.8l0,0c10.4,0,18.8,8.4,18.8,18.8l0,0c0,10.4-8.4,18.8-18.8,18.8l0,0C410.4,182,402,173.5,402,163.2z M348.3,163.2c0-10.4,8.4-18.8,18.8-18.8l0,0c10.4,0,18.8,8.4,18.8,18.8l0,0c0,10.4-8.4,18.8-18.8,18.8l0,0	C356.8,182,348.3,173.5,348.3,163.2z M294.7,163.2c0-10.4,8.4-18.8,18.8-18.8l0,0c10.4,0,18.8,8.4,18.8,18.8l0,0	c0,10.4-8.4,18.8-18.8,18.8l0,0C303.1,182,294.7,173.5,294.7,163.2z M241.1,163.2c0-10.4,8.4-18.8,18.8-18.8l0,0	c10.4,0,18.7,8.4,18.7,18.8l0,0c0,10.4-8.4,18.8-18.7,18.8l0,0C249.5,182,241.1,173.5,241.1,163.2z"/><path d="M635.5,670.2h-407c-19.2,0-34.8-15.6-34.8-34.8v-407c0-19.2,15.6-34.8,34.8-34.8h407c19.2,0,34.8,15.6,34.8,34.8v407	C670.2,654.6,654.6,670.2,635.5,670.2z M228.5,209.9c-10.3,0-18.7,8.4-18.7,18.7v407c0,10.3,8.4,18.7,18.7,18.7h407	c10.3,0,18.7-8.4,18.7-18.7v-407c0-10.3-8.4-18.7-18.7-18.7H228.5z"/></g></svg>